/* XPM */
static char * D:\opengribs site\images\Sun_32_xpm[] = {
"32 32 212 2",
"  	c None",
". 	c #CE571A",
"+ 	c #DF8F1D",
"@ 	c #DE8D1B",
"# 	c #F2CE11",
"$ 	c #E09319",
"% 	c #EAB113",
"& 	c #E49914",
"* 	c #E5900F",
"= 	c #EFA908",
"- 	c #F5B503",
"; 	c #F5B201",
"> 	c #EBB011",
", 	c #F4BF08",
"' 	c #F5B502",
") 	c #F9CA00",
"! 	c #FCD500",
"~ 	c #FDDE00",
"{ 	c #FFE200",
"] 	c #FFDE00",
"^ 	c #FDD400",
"/ 	c #FCC900",
"( 	c #F9BF00",
"_ 	c #D86E13",
": 	c #F4B905",
"< 	c #FAD100",
"[ 	c #FEE705",
"} 	c #FFF017",
"| 	c #FFF121",
"1 	c #FFF01D",
"2 	c #FFEF0A",
"3 	c #FFEC00",
"4 	c #FFE600",
"5 	c #FFE000",
"6 	c #FFD700",
"7 	c #FECD00",
"8 	c #FAC100",
"9 	c #F0A905",
"0 	c #FCDB00",
"a 	c #FFF11E",
"b 	c #FFF445",
"c 	c #FFF55B",
"d 	c #FFF663",
"e 	c #FFF55C",
"f 	c #FFF348",
"g 	c #FFF025",
"h 	c #FFEB00",
"i 	c #FFE400",
"j 	c #FFDC00",
"k 	c #FFD000",
"l 	c #FCC500",
"m 	c #DF8D1A",
"n 	c #E9A711",
"o 	c #F4B605",
"p 	c #FFF554",
"q 	c #FFF87A",
"r 	c #FFF992",
"s 	c #FFF99B",
"t 	c #FFF77A",
"u 	c #FFF455",
"v 	c #FFEF25",
"w 	c #FFE900",
"x 	c #FFE100",
"y 	c #FFD100",
"z 	c #FFCD00",
"A 	c #DF8D19",
"B 	c #E7A513",
"C 	c #F3B808",
"D 	c #FACF00",
"E 	c #FFEF08",
"F 	c #FFF448",
"G 	c #FFFAA5",
"H 	c #FFFBC2",
"I 	c #FFFCCE",
"J 	c #FFF248",
"K 	c #FFEC0A",
"L 	c #FFE500",
"M 	c #FFD900",
"N 	c #FFCC00",
"O 	c #FFCB00",
"P 	c #E8A613",
"Q 	c #E29114",
"R 	c #F4B402",
"S 	c #FEE400",
"T 	c #FFFEE6",
"U 	c #FFFEF4",
"V 	c #FFEF1E",
"W 	c #FFDB00",
"X 	c #FFC900",
"Y 	c #FECA00",
"Z 	c #E38B0F",
"` 	c #FACA00",
" .	c #FFF125",
"..	c #FFFFFF",
"+.	c #FFF563",
"@.	c #FFC700",
"#.	c #FFC400",
"$.	c #FFCA00",
"%.	c #FAC200",
"&.	c #EEA408",
"*.	c #FCD400",
"=.	c #FFE800",
"-.	c #FFF01E",
";.	c #FFDA00",
">.	c #FFC100",
",.	c #FFC800",
"'.	c #DC801B",
").	c #F3B003",
"!.	c #FDD900",
"~.	c #FFEE0A",
"{.	c #FFE300",
"].	c #FFC000",
"^.	c #FDCE00",
"/.	c #DC811E",
"(.	c #E9A312",
"_.	c #F5B101",
":.	c #FFEA00",
"<.	c #FFD200",
"[.	c #FFBE00",
"}.	c #DC7F1E",
"|.	c #E89F12",
"1.	c #F4B001",
"2.	c #FFD600",
"3.	c #FFD800",
"4.	c #FFBB00",
"5.	c #FFBD00",
"6.	c #FFD300",
"7.	c #DB7A1B",
"8.	c #F2AE03",
"9.	c #FFD400",
"0.	c #FFEC09",
"a.	c #FFEE1D",
"b.	c #FFCE00",
"c.	c #FFC300",
"d.	c #FFB800",
"e.	c #FDD100",
"f.	c #ECA008",
"g.	c #FBC000",
"h.	c #FFBA00",
"i.	c #FFB300",
"j.	c #FFB400",
"k.	c #FFBC00",
"l.	c #FBC800",
"m.	c #E2880F",
"n.	c #F9B600",
"o.	c #FFB700",
"p.	c #FFC200",
"q.	c #FFB900",
"r.	c #FFB100",
"s.	c #FFA800",
"t.	c #FFA200",
"u.	c #FFA900",
"v.	c #FFB600",
"w.	c #DF8015",
"x.	c #F2AD03",
"y.	c #FDB500",
"z.	c #FFAF00",
"A.	c #FFB200",
"B.	c #FFAA00",
"C.	c #FFA400",
"D.	c #FFA000",
"E.	c #FF9F00",
"F.	c #FFA500",
"G.	c #FFB000",
"H.	c #FDC700",
"I.	c #E08014",
"J.	c #ED9F09",
"K.	c #FAB600",
"L.	c #FFA600",
"M.	c #FF9D00",
"N.	c #FFAE00",
"O.	c #FFC500",
"P.	c #DA741A",
"Q.	c #E28212",
"R.	c #F0A505",
"S.	c #FBB500",
"T.	c #FFAB00",
"U.	c #FFA100",
"V.	c #FF9E00",
"W.	c #FF9C00",
"X.	c #FF9B00",
"Y.	c #FBC400",
"Z.	c #EEA205",
"`.	c #FBB700",
" +	c #FFA700",
".+	c #FFAC00",
"++	c #EFA305",
"@+	c #FABA00",
"#+	c #FDB800",
"$+	c #FFB500",
"%+	c #FDC500",
"&+	c #E17C12",
"*+	c #EC9709",
"=+	c #F2AA03",
"-+	c #F9BB00",
";+	c #FBBC00",
">+	c #FDBE00",
",+	c #FFBF00",
"'+	c #FDC200",
")+	c #FBC100",
"!+	c #F9BE00",
"~+	c #E17B12",
"{+	c #D96D1A",
"]+	c #DD7114",
"^+	c #DE7715",
"/+	c #E2850F",
"(+	c #EB9A08",
"_+	c #F1A803",
":+	c #F3AF01",
"<+	c #D86B1C",
"[+	c #E07412",
"}+	c #D96D1E",
"                                                                ",
"                              . .                               ",
"                            . . . .                             ",
"                . . .     . . + + . .     . . .                 ",
"                . . . . . . @ # # @ . . . . . .                 ",
"                . $ % & * = - ; ; - = * & % $ .                 ",
"              . . > , ' ) ! ~ { ] ^ / ( ' , > . .               ",
"            . . _ : < [ } | 1 2 3 4 5 6 7 8 : _ . .             ",
"      . . . . _ 9 0 a b c d e f g h i j 6 k l 9 _ . . . .       ",
"      . . m n o 0 | p q r s r t u v w x 6 y z l o n A . .       ",
"      . . B C D E F q G H I H G t J K L M k N O 8 C P . .       ",
"        . Q R S 1 e r H T U T H r e V L W k X X Y R Q .         ",
"        . Z ` h  .d s I U ..U I s +.v 4 W k @.#.$.%.Z .         ",
"      . . &.*.=.-.e r H T U T H r e V L ;.z #.>.,./ &.. .       ",
"    . . '.).!.4 ~.J t G H I H G t J K {.6 O ].].@.^.).'.. .     ",
"  . . /.(._.;.{ :.v u t r s r t u v w ] <.@.[.[.@.y _.(./.. .   ",
"  . . }.|.1.2.j {.:.v J e +.e J v :.{ 3.N ].4.5.X 6.1.|.}.. .   ",
"    . . 7.8.^.9.W { =.0.a.v V K w { M b.c.4.d.5.$.e.8.7.. .     ",
"      . . f.g.@.N 9.j { L 4 L {.] 6 b.c.h.i.j.k.@.l.f.. .       ",
"        . m.n.o.o.4.p.X z b.z X >.q.r.s.t.t.u.v.p.( m..         ",
"        . w.x.y.z.z.A.v.d.h.d.v.r.B.C.D.E.F.G.5.H.x.w..         ",
"      . . I.J.K.z.u.L.s.s.s.s.L.t.E.M.E.C.N.q.O.8 J.I.. .       ",
"      . . P.Q.R.S.T.F.U.E.V.M.W.X.W.E.L.z.d.p.Y.R.Q.P.. .       ",
"      . . . . _ Z.`.G. +t.D.V.E.t.L..+i.4.#.Y.Z._ . . . .       ",
"            . . _ ++@+#+i.z.N.z.r.$+h.].%+8 ++_ . .             ",
"              . . &+*+=+-+;+>+,+>.'+)+!+=+*+~+. .               ",
"                . {+]+^+/+(+_+:+:+_+(+/+^+]+{+.                 ",
"                . . . . . . <+[+[+<+. . . . . .                 ",
"                . . .     . . }+}+. .     . . .                 ",
"                            . . . .                             ",
"                              . .                               ",
"                                                                "};
