/* XPM */
static char * zyGrib_32_xpm[] = {
"32 32 125 2",
"  	c None",
". 	c #96AFBA",
"+ 	c #98ADBF",
"@ 	c #535976",
"# 	c #9AB2BD",
"$ 	c #9DB4BE",
"% 	c #10101A",
"& 	c #000000",
"* 	c #93A5C5",
"= 	c #98B0BB",
"- 	c #191A29",
"; 	c #010101",
"> 	c #0F0F1D",
", 	c #262838",
"' 	c #4C5369",
") 	c #3B3E5D",
"! 	c #010202",
"~ 	c #8797B4",
"{ 	c #717B9C",
"] 	c #0E0E1D",
"^ 	c #59607C",
"/ 	c #4B516A",
"( 	c #67738D",
"_ 	c #0C0C1A",
": 	c #9BAFC6",
"< 	c #1C1D2E",
"[ 	c #494F68",
"} 	c #9FB4C5",
"| 	c #69748F",
"1 	c #25263A",
"2 	c #0A0A12",
"3 	c #93A6BF",
"4 	c #4B5068",
"5 	c #474C66",
"6 	c #737F9A",
"7 	c #8596B2",
"8 	c #9DB4BF",
"9 	c #96AAC1",
"0 	c #090911",
"a 	c #636C8D",
"b 	c #010108",
"c 	c #28283B",
"d 	c #545C76",
"e 	c #8594AF",
"f 	c #A3B9C2",
"g 	c #282A41",
"h 	c #636D88",
"i 	c #616A8A",
"j 	c #272738",
"k 	c #070712",
"l 	c #212133",
"m 	c #4F566D",
"n 	c #8290AC",
"o 	c #4D546D",
"p 	c #151524",
"q 	c #97AFBA",
"r 	c #95A7C1",
"s 	c #667189",
"t 	c #323448",
"u 	c #11111F",
"v 	c #8494AD",
"w 	c #8797AE",
"x 	c #585F75",
"y 	c #8090AC",
"z 	c #9FB6C0",
"A 	c #A2B7C5",
"B 	c #545B75",
"C 	c #32344B",
"D 	c #353654",
"E 	c #000002",
"F 	c #222234",
"G 	c #4A5067",
"H 	c #7D8DA5",
"I 	c #A4B9C3",
"J 	c #A1B6C5",
"K 	c #000003",
"L 	c #98ACC3",
"M 	c #99B1BC",
"N 	c #68728D",
"O 	c #33364A",
"P 	c #11111D",
"Q 	c #1C1C2C",
"R 	c #474D63",
"S 	c #6C7990",
"T 	c #1E1F2E",
"U 	c #525971",
"V 	c #9EB2C8",
"W 	c #738099",
"X 	c #3F4458",
"Y 	c #1B1B2A",
"Z 	c #10101B",
"` 	c #98B1BB",
" .	c #757F9E",
"..	c #5F6981",
"+.	c #93A5C2",
"@.	c #A0B7C1",
"#.	c #4A5068",
"$.	c #6D7A92",
"%.	c #9EB5BF",
"&.	c #08081A",
"*.	c #0A0A17",
"=.	c #2C2D3F",
"-.	c #5E6880",
";.	c #8EA0BB",
">.	c #9AB2BC",
",.	c #74819C",
"'.	c #93A7BE",
").	c #4B526A",
"!.	c #262639",
"~.	c #000005",
"{.	c #020209",
"].	c #242438",
"^.	c #5C6580",
"/.	c #636D85",
"(.	c #05050B",
"_.	c #8D9FB7",
":.	c #A0B6C0",
"<.	c #8A9BB5",
"[.	c #5C657E",
"}.	c #2A2B3E",
"|.	c #060612",
"1.	c #444961",
"2.	c #646E85",
"3.	c #2D2E44",
"4.	c #41455A",
". . . . . . . . . . . . . . . . . . . . . . . . . . . . . . . . ",
". . . . . . . . . . . . . . . . . . . . . . . . . . . . . . . . ",
". . . . . . . . . . . . . . . . . . . . . . . . . . . . . . . . ",
". . . . . . . . . . . . . . . . . . . . . . . . . . . . . . . . ",
". . . . . . . . . . . . . . . . . . . . . . . . . . + @ # . . . ",
". . . . . . . . . . . . . . . . . . . . . . . . . $ % & * . . . ",
". . . . . . . . . . . . . . . . . . . . . . . . = - ; > . . . . ",
". . . . . . . . . . . . . . . . . . . . . . . . , & & ' . . . . ",
". . . . . . . . . . . . . . . . . . . . . . . ) & ! & ~ . . . . ",
". . . . . . . . . . . . . . . . . . . . . . { & ! ! ] . . . . . ",
". . . . . . . . . . . . . . . . . . . . . . ^ & ! & / . . . . . ",
". . . . . . . . . . . . . . . . . . . . . . ( & & _ : . . . . . ",
". . . . . . . . . . . . . . . . . . . . . . < & [ } . . . . . . ",
". . . . . . . . . . . . . . . . . . . . . | & 1 . . . . . . . . ",
". . . . . . . . . . . . . . . . . . . . $ 2 & 3 . . . . . . . . ",
". . . . . . . . . . . . . . . . . . . . 4 & 5 . . . . . . . . . ",
". . . . . . . $ 6 7 8 . . . . . . . . 9 & 0 8 . . . . . . . . . ",
". . . . . . . a & & b c d e f . . . . g & h . . . . . . . . . . ",
". . . . . . . . i j k & & & & l m n o & p . . . . . . . . . . . ",
". . . . . . . . . . q r s t u & & & & & v . . . . . . . . . . . ",
". . . . . w x y z . . . . . . A B & ; C . . . . . . . . . . . . ",
". . . . . D & & E F G H I . . . J & K L . . . . . . . . . . . . ",
". . . . . M N O P & & & & Q R S T & U . . . . . . . . . . . . . ",
". . . . . . . . . V W X Y & & & ; Z ` . . . . . . . . . . . . . ",
". . .  ...+.. . . . . . . @.#.& & $.. . . . . . . . . . . . . . ",
". . %.&.& & *.=.-.;.>.. . . ,.& Y . . . . . . . . . . . . . . . ",
". . . '.).!.~.& & & {.].^./.(.& _.. . . . . . . . . . . . . . . ",
". . . . . . :.<.[.}.|.& & & & 1.. . . . . . . . . . . . . . . . ",
". . . . . . . . . . M +.2.3.4.q . . . . . . . . . . . . . . . . ",
". . . . . . . . . . . . . . . . . . . . . . . . . . . . . . . . ",
". . . . . . . . . . . . . . . . . . . . . . . . . . . . . . . . ",
". . . . . . . . . . . . . . . . . . . . . . . . . . . . . . . . "};
