/* XPM */
static char * D:\opengribs site\images\XyGrib_red_xpm[] = {
"32 32 2 1",
" 	c None",
".	c #F90656",
"                                ",
"                                ",
"                                ",
"                                ",
"                                ",
"                                ",
"                                ",
" ..  ..  ..                     ",
" ..  ..  ..                     ",
" ... ... ...                    ",
" ...  ..  ...                   ",
"  ...  ..  ..                   ",
"  ...  ..  ...          ......  ",
"   ... ... ...         ........ ",
"   ............        ...  ... ",
"    .....................    .. ",
"    .....................    .. ",
"                       ...  ... ",
"                       ........ ",
"                        ......  ",
"                                ",
"                                ",
"                                ",
"                                ",
"                                ",
"                                ",
"                                ",
"                                ",
"                                ",
"                                ",
"                                ",
"                                "};
